<?xml version="1.0" encoding="UTF-8" standalone="no"?>
<svg
   xmlns:dc="http://purl.org/dc/elements/1.1/"
   xmlns:cc="http://creativecommons.org/ns#"
   xmlns:rdf="http://www.w3.org/1999/02/22-rdf-syntax-ns#"
   xmlns:svg="http://www.w3.org/2000/svg"
   xmlns="http://www.w3.org/2000/svg"
   xmlns:sodipodi="http://sodipodi.sourceforge.net/DTD/sodipodi-0.dtd"
   xmlns:inkscape="http://www.inkscape.org/namespaces/inkscape"
   width="210mm"
   height="297mm"
   viewBox="0 0 210 297"
   version="1.1"
   id="svg8"
   inkscape:version="1.0.1 (3bc2e813f5, 2020-09-07)"
   sodipodi:docname="logo.svg">
  <defs
     id="defs2" />
  <sodipodi:namedview
     id="base"
     pagecolor="#ffffff"
     bordercolor="#666666"
     borderopacity="1.0"
     inkscape:pageopacity="0.0"
     inkscape:pageshadow="2"
     inkscape:zoom="0.6434832"
     inkscape:cx="353.00322"
     inkscape:cy="338.90143"
     inkscape:document-units="mm"
     inkscape:current-layer="layer1"
     inkscape:document-rotation="0"
     showgrid="false"
     inkscape:window-width="1366"
     inkscape:window-height="705"
     inkscape:window-x="-8"
     inkscape:window-y="-8"
     inkscape:window-maximized="1" />
  <metadata
     id="metadata5">
    <rdf:RDF>
      <cc:Work
         rdf:about="">
        <dc:format>image/svg+xml</dc:format>
        <dc:type
           rdf:resource="http://purl.org/dc/dcmitype/StillImage" />
        <dc:title></dc:title>
      </cc:Work>
    </rdf:RDF>
  </metadata>
  <g
     inkscape:label="レイヤー 1"
     inkscape:groupmode="layer"
     id="layer1">
    <path
       style="fill:#84ace0;fill-opacity:1;stroke:none;stroke-width:0.264583px;stroke-linecap:butt;stroke-linejoin:miter;stroke-opacity:1"
       d="M 100,50 50,0 0,50 50,150 Z"
       id="path844"
       sodipodi:nodetypes="ccccc" />
    <path
       style="fill:#3abdf3;fill-opacity:1;stroke:none;stroke-width:0.264583px;stroke-linecap:butt;stroke-linejoin:miter;stroke-opacity:1"
       d="M 50.024639,0.66525576 35.860524,47.202029 59.725182,50.46088 Z"
       id="path850"
       sodipodi:nodetypes="cccc" />
    <path
       style="fill:#0e3ef1;fill-opacity:1;stroke:none;stroke-width:0.264583px;stroke-linecap:butt;stroke-linejoin:miter;stroke-opacity:1"
       d="M 47.7013,3.9422564 6.30761,46.91285 32.264665,45.913278 Z"
       id="path852"
       sodipodi:nodetypes="cccc" />
    <path
       style="fill:#08229b;fill-opacity:1;stroke:none;stroke-width:0.264583px;stroke-linecap:butt;stroke-linejoin:miter;stroke-opacity:1"
       d="M 52.629122,4.1393692 64.632257,48.681476 93.941991,47.667894 Z"
       id="path854"
       sodipodi:nodetypes="cccc" />
    <path
       style="fill:#0c52d4;fill-opacity:1;stroke:none;stroke-width:0.264583px;stroke-linecap:butt;stroke-linejoin:miter;stroke-opacity:1"
       d="M 2.9074139,49.721708 49.67243,148.67234 31.850249,48.374363 Z"
       id="path856"
       sodipodi:nodetypes="cccc" />
    <path
       style="fill:#3675f7;fill-opacity:1;stroke:none;stroke-width:0.264583px;stroke-linecap:butt;stroke-linejoin:miter;stroke-opacity:1"
       d="M 35.761968,48.384706 49.96766,147.0457 58.678899,54.009676 Z"
       id="path858"
       sodipodi:nodetypes="cccc" />
    <path
       style="fill:#063598;fill-opacity:1;stroke:none;stroke-width:0.264583px;stroke-linecap:butt;stroke-linejoin:miter;stroke-opacity:1"
       d="M 65.04723,53.811799 50.107042,148.63114 97.718678,49.573873 Z"
       id="path860"
       sodipodi:nodetypes="cccc" />
    <path
       style="fill:#ffffff;stroke:none;stroke-width:0.264583px;stroke-linecap:butt;stroke-linejoin:miter;stroke-opacity:1"
       d="M 54.660797,18.792361 59.725181,50.46088 45.019679,49.619212 58.678899,54.009676 55.714002,112.18383 65.04723,53.811799 89.790314,48.222512 64.632257,48.681475 Z"
       id="path862"
       sodipodi:nodetypes="ccccccccc" />
    <path
       style="fill:#ffffff;stroke:none;stroke-width:0.264583px;stroke-linecap:butt;stroke-linejoin:miter;stroke-opacity:1"
       d="m 39.723245,24.670226 -7.458581,21.243052 -15.539087,2.033375 15.124671,0.42771 5.224782,31.072126 -1.313063,-31.061784 6.237072,0.818856 -6.138515,-2.001532 z"
       id="path864"
       sodipodi:nodetypes="ccccccccc" />
    <path
       id="path884"
       style="fill:#e5e5e5;fill-opacity:0.28999999;stroke:none;stroke-width:0.264583px;stroke-linecap:butt;stroke-linejoin:miter;stroke-opacity:1"
       d="M 7.4904988,63.076253 6.8088866,63.618339 50.000048,150.00015 89.142878,71.714486 89.48911,68.201005 69.77817,83.181485 47.30719,74.902922 27.595732,81.210546 Z" />
    <g
       id="g1152"
       transform="matrix(0.88710804,0,0,0.88710804,-80.766395,49.314426)">
      <g
         id="g1138"
         transform="matrix(1.0887008,0,0,1.0887008,75.212495,23.293646)">
        <path
           id="path1065"
           style="font-variation-settings:normal;opacity:0.5;vector-effect:none;fill:#ffffff;fill-opacity:1;stroke:none;stroke-width:0.948867;stroke-linecap:round;stroke-linejoin:round;stroke-miterlimit:4;stroke-dasharray:none;stroke-dashoffset:0;stroke-opacity:1;paint-order:stroke fill markers;stop-color:#000000;stop-opacity:1"
           d="m 109.88344,-27.300123 a 20,20 0 0 1 -20.000002,19.9999998 20,20 0 0 1 -20,-19.9999998 20,20 0 0 1 20,-20 20,20 0 0 1 20.000002,20 z" />
        <path
           id="path1065-4"
           style="font-variation-settings:normal;opacity:0.5;vector-effect:none;fill:#ffffff;fill-opacity:1;stroke:none;stroke-width:0.668316;stroke-linecap:round;stroke-linejoin:round;stroke-miterlimit:4;stroke-dasharray:none;stroke-dashoffset:0;stroke-opacity:1;paint-order:stroke fill markers;stop-color:#000000;stop-opacity:1"
           d="M 103.97005,-27.300123 A 14.086615,14.086615 0 0 1 89.883436,-13.213508 14.086615,14.086615 0 0 1 75.79682,-27.300123 14.086615,14.086615 0 0 1 89.883436,-41.386738 14.086615,14.086615 0 0 1 103.97005,-27.300123 Z" />
        <path
           id="path1065-4-5"
           style="font-variation-settings:normal;opacity:0.5;vector-effect:none;fill:#ffffff;fill-opacity:1;stroke:none;stroke-width:0.425172;stroke-linecap:round;stroke-linejoin:round;stroke-miterlimit:4;stroke-dasharray:none;stroke-dashoffset:0;stroke-opacity:1;paint-order:stroke fill markers;stop-color:#000000;stop-opacity:1"
           d="m 98.845116,-27.300123 a 8.9616818,8.9616818 0 0 1 -8.961683,8.961682 8.9616818,8.9616818 0 0 1 -8.961682,-8.961682 8.9616818,8.9616818 0 0 1 8.961682,-8.961682 8.9616818,8.9616818 0 0 1 8.961683,8.961682 z" />
        <path
           id="path1065-4-5-3"
           style="font-variation-settings:normal;opacity:0.5;vector-effect:none;fill:#ffffff;fill-opacity:1;stroke:none;stroke-width:0.228787;stroke-linecap:round;stroke-linejoin:round;stroke-miterlimit:4;stroke-dasharray:none;stroke-dashoffset:0;stroke-opacity:1;paint-order:stroke fill markers;stop-color:#000000;stop-opacity:1"
           d="m 94.705747,-27.300123 a 4.8223128,4.8223128 0 0 1 -4.822313,4.822313 4.8223128,4.8223128 0 0 1 -4.822313,-4.822313 4.8223128,4.8223128 0 0 1 4.822313,-4.822313 4.8223128,4.8223128 0 0 1 4.822313,4.822313 z" />
        <path
           id="path1065-4-5-3-2"
           style="font-variation-settings:normal;opacity:0.5;vector-effect:none;fill:#ffffff;fill-opacity:1;stroke:none;stroke-width:0.126291;stroke-linecap:round;stroke-linejoin:round;stroke-miterlimit:4;stroke-dasharray:none;stroke-dashoffset:0;stroke-opacity:1;paint-order:stroke fill markers;stop-color:#000000;stop-opacity:1"
           d="m 92.54536,-27.300123 a 2.6619258,2.6619258 0 0 1 -2.661926,2.661926 2.6619258,2.6619258 0 0 1 -2.661926,-2.661926 2.6619258,2.6619258 0 0 1 2.661926,-2.661926 2.6619258,2.6619258 0 0 1 2.661926,2.661926 z" />
      </g>
      <g
         id="g1063"
         transform="translate(43.269648,-7.1213137)">
        <path
           sodipodi:type="star"
           style="font-variation-settings:normal;opacity:0.5;vector-effect:none;fill:#ffffff;fill-opacity:1;stroke:none;stroke-width:1.15056;stroke-linecap:round;stroke-linejoin:round;stroke-miterlimit:4;stroke-dasharray:none;stroke-dashoffset:0;stroke-opacity:1;paint-order:stroke fill markers;stop-color:#000000"
           id="path912"
           sodipodi:sides="6"
           sodipodi:cx="130.53004"
           sodipodi:cy="0.69329411"
           sodipodi:r1="39.917583"
           sodipodi:r2="7.0085702"
           sodipodi:arg1="1.5707963"
           sodipodi:arg2="2.0943951"
           inkscape:flatsided="false"
           inkscape:rounded="0"
           inkscape:randomized="0"
           inkscape:transform-center-x="7.2417241e-06"
           d="M 130.53005,40.610878 127.02576,6.7628939 95.960404,20.652087 123.52147,0.69329412 95.960403,-19.265497 127.02576,-5.3763057 130.53004,-39.224289 134.03433,-5.3763057 165.09969,-19.265499 137.53861,0.69329409 165.09969,20.652085 134.03433,6.7628939 Z" />
        <path
           sodipodi:type="star"
           style="font-variation-settings:normal;opacity:0.5;vector-effect:none;fill:#ffffff;fill-opacity:1;stroke:none;stroke-width:0.60494;stroke-linecap:round;stroke-linejoin:round;stroke-miterlimit:4;stroke-dasharray:none;stroke-dashoffset:0;stroke-opacity:1;paint-order:stroke fill markers;stop-color:#000000"
           id="path912-6"
           sodipodi:sides="6"
           sodipodi:cx="130.53004"
           sodipodi:cy="0.69329411"
           sodipodi:r1="20.987856"
           sodipodi:r2="3.6849637"
           sodipodi:arg1="1.5707963"
           sodipodi:arg2="2.0943951"
           inkscape:flatsided="false"
           inkscape:rounded="0"
           inkscape:randomized="0"
           inkscape:transform-center-x="5.3237584e-06"
           d="M 130.53005,21.68115 128.68756,3.8845663 112.35403,11.187223 126.84508,0.69329412 112.35403,-9.8006334 l 16.33353,7.3026553 1.84248,-17.7965839 1.84249,17.7965839 16.33353,-7.3026562 -14.49105,10.4939284 14.49105,10.4939279 -16.33353,-7.3026557 z" />
        <path
           sodipodi:type="star"
           style="font-variation-settings:normal;opacity:0.5;vector-effect:none;fill:#ffffff;fill-opacity:1;stroke:none;stroke-width:0.329423;stroke-linecap:round;stroke-linejoin:round;stroke-miterlimit:4;stroke-dasharray:none;stroke-dashoffset:0;stroke-opacity:1;paint-order:stroke fill markers;stop-color:#000000"
           id="path912-6-2"
           sodipodi:sides="6"
           sodipodi:cx="130.53004"
           sodipodi:cy="0.69329411"
           sodipodi:r1="11.42904"
           sodipodi:r2="2.0066655"
           sodipodi:arg1="1.5707963"
           sodipodi:arg2="2.0943951"
           inkscape:flatsided="false"
           inkscape:rounded="0"
           inkscape:randomized="0"
           d="m 130.53004,12.122334 -1.00333,-9.6912166 -8.8945,3.976697 7.89117,-5.71452029 -7.89117,-5.71451971 8.8945,3.9766964 1.00333,-9.6912168 1.00334,9.6912168 8.8945,-3.9766969 -7.89117,5.7145202 7.89117,5.7145197 -8.8945,-3.9766964 z" />
        <path
           sodipodi:type="star"
           style="font-variation-settings:normal;opacity:0.5;vector-effect:none;fill:#ffffff;fill-opacity:1;stroke:none;stroke-width:0.179167;stroke-linecap:round;stroke-linejoin:round;stroke-miterlimit:4;stroke-dasharray:none;stroke-dashoffset:0;stroke-opacity:1;paint-order:stroke fill markers;stop-color:#000000"
           id="path912-6-2-3"
           sodipodi:sides="6"
           sodipodi:cx="130.53004"
           sodipodi:cy="0.69329411"
           sodipodi:r1="6.2159934"
           sodipodi:r2="1.0913794"
           sodipodi:arg1="1.5707963"
           sodipodi:arg2="2.0943951"
           inkscape:flatsided="false"
           inkscape:rounded="0"
           inkscape:randomized="0"
           d="m 130.53004,6.9092875 -0.54569,-5.2708311 -4.83751,2.1628346 4.29183,-3.10799689 -4.29183,-3.10799661 4.83751,2.16283432 0.54569,-5.27083112 0.54569,5.27083112 4.83752,-2.16283452 -4.29183,3.10799681 4.29183,3.10799659 -4.83752,-2.1628343 z" />
        <path
           sodipodi:type="star"
           style="font-variation-settings:normal;opacity:0.5;vector-effect:none;fill:#ffffff;fill-opacity:1;stroke:none;stroke-width:0.0715238;stroke-linecap:round;stroke-linejoin:round;stroke-miterlimit:4;stroke-dasharray:none;stroke-dashoffset:0;stroke-opacity:1;paint-order:stroke fill markers;stop-color:#000000"
           id="path912-6-2-3-7"
           sodipodi:sides="6"
           sodipodi:cx="130.53004"
           sodipodi:cy="0.69329411"
           sodipodi:r1="2.4814434"
           sodipodi:r2="0.435682"
           sodipodi:arg1="1.5707963"
           sodipodi:arg2="2.0943951"
           inkscape:flatsided="false"
           inkscape:rounded="0"
           inkscape:randomized="0"
           d="m 130.53004,3.1747375 -0.21784,-2.1041317 -1.93115,0.8634101 1.71331,-1.24072179 -1.71331,-1.24072165 1.93115,0.86340997 0.21784,-2.10413173 0.21785,2.10413173 1.93115,-0.86341008 -1.71331,1.24072176 1.71331,1.24072169 -1.93115,-0.86341 z" />
      </g>
    </g>
  </g>
</svg>
